# Blender v2.91.2 OBJ File: ''
# www.blender.org
mtllib enemy3.mtl
o Circle_Circle.001
v 0.761730 2.003834 0.001030
v 0.226033 1.468138 -0.000000
v 0.761730 0.932443 -0.001030
v 0.657220 1.993541 0.001010
v 0.382935 1.846933 0.000728
v 0.556727 1.963057 0.000951
v 0.464112 1.913553 0.000856
v 0.316314 1.765755 0.000572
v 0.266811 1.673141 0.000394
v 0.236326 1.572647 0.000201
v 0.236326 1.363630 -0.000201
v 0.266811 1.263136 -0.000394
v 0.316314 1.170522 -0.000572
v 0.382935 1.089344 -0.000728
v 0.464112 1.022723 -0.000857
v 0.556728 0.973220 -0.000952
v 0.657220 0.942736 -0.001010
v 0.866239 0.942736 -0.001010
v 0.966732 0.973220 -0.000952
v 1.059347 1.022724 -0.000857
v 1.140525 1.089345 -0.000728
v 1.207146 1.170522 -0.000572
v 1.256649 1.263137 -0.000394
v 1.287133 1.363630 -0.000201
v 1.297426 1.468139 -0.000000
v 1.287133 1.572648 0.000201
v 1.256649 1.673141 0.000394
v 1.207145 1.765756 0.000572
v 1.140524 1.846933 0.000728
v 1.059346 1.913553 0.000856
v 0.966731 1.963057 0.000951
v 0.866238 1.993541 0.001010
vt 0.000000 0.000000
vt 0.000000 0.000000
vt 0.000000 0.000000
vt 0.000000 0.000000
vt 0.000000 0.000000
vt 0.000000 0.000000
vt 0.000000 0.000000
vt 0.000000 0.000000
vt 0.000000 0.000000
vt 0.000000 0.000000
vt 0.000000 0.000000
vt 0.000000 0.000000
vt 0.000000 0.000000
vt 0.000000 0.000000
vt 0.000000 0.000000
vt 0.000000 0.000000
vt 0.000000 0.000000
vt 0.000000 0.000000
vt 0.000000 0.000000
vt 0.000000 0.000000
vt 0.000000 0.000000
vt 0.000000 0.000000
vt 0.000000 0.000000
vt 0.000000 0.000000
vt 0.000000 0.000000
vt 0.000000 0.000000
vt 0.000000 0.000000
vt 0.000000 0.000000
vt 0.000000 0.000000
vt 0.000000 0.000000
vt 0.000000 0.000000
vt 0.000000 0.000000
vn -0.0000 -0.0019 1.0000
usemtl None
s 1
f 1/1/1 2/2/1 3/3/1
f 1/1/1 4/4/1 5/5/1
f 4/4/1 6/6/1 5/5/1
f 6/6/1 7/7/1 5/5/1
f 5/5/1 8/8/1 9/9/1
f 9/9/1 10/10/1 5/5/1
f 10/10/1 2/2/1 5/5/1
f 2/2/1 11/11/1 12/12/1
f 12/12/1 13/13/1 14/14/1
f 14/14/1 15/15/1 16/16/1
f 16/16/1 17/17/1 14/14/1
f 17/17/1 3/3/1 14/14/1
f 3/3/1 18/18/1 19/19/1
f 19/19/1 20/20/1 21/21/1
f 21/21/1 22/22/1 23/23/1
f 23/23/1 24/24/1 21/21/1
f 24/24/1 25/25/1 21/21/1
f 25/25/1 26/26/1 27/27/1
f 27/27/1 28/28/1 29/29/1
f 29/29/1 30/30/1 31/31/1
f 31/31/1 32/32/1 29/29/1
f 32/32/1 1/1/1 29/29/1
f 2/2/1 12/12/1 3/3/1
f 12/12/1 14/14/1 3/3/1
f 3/3/1 19/19/1 25/25/1
f 19/19/1 21/21/1 25/25/1
f 25/25/1 27/27/1 29/29/1
f 1/1/1 5/5/1 2/2/1
f 25/25/1 29/29/1 3/3/1
f 29/29/1 1/1/1 3/3/1
o Circle.001_Circle.002
v 0.000000 1.303862 0.039399
v -1.300174 0.003690 0.036900
v 0.000000 -1.296482 0.034401
v -0.253651 1.278879 0.039351
v -0.919362 0.923050 0.038667
v -0.497555 1.204892 0.039209
v -0.722338 1.084743 0.038978
v -1.081055 0.726027 0.038289
v -1.201204 0.501244 0.037856
v -1.275191 0.257341 0.037388
v -1.275192 -0.249961 0.036413
v -1.201204 -0.493864 0.035944
v -1.081055 -0.718647 0.035512
v -0.919362 -0.915670 0.035133
v -0.722338 -1.077363 0.034822
v -0.497555 -1.197512 0.034591
v -0.253651 -1.271499 0.034449
v 0.253652 -1.271499 0.034449
v 0.497556 -1.197512 0.034591
v 0.722339 -1.077363 0.034822
v 0.919362 -0.915670 0.035133
v 1.081056 -0.718646 0.035512
v 1.201205 -0.493863 0.035944
v 1.275192 -0.249960 0.036413
v 1.300174 0.003691 0.036900
v 1.275191 0.257342 0.037388
v 1.201204 0.501245 0.037856
v 1.081054 0.726028 0.038289
v 0.919361 0.923051 0.038667
v 0.722337 1.084744 0.038978
v 0.497553 1.204893 0.039209
v 0.253649 1.278880 0.039351
vt 0.000000 0.000000
vt 0.000000 0.000000
vt 0.000000 0.000000
vt 0.000000 0.000000
vt 0.000000 0.000000
vt 0.000000 0.000000
vt 0.000000 0.000000
vt 0.000000 0.000000
vt 0.000000 0.000000
vt 0.000000 0.000000
vt 0.000000 0.000000
vt 0.000000 0.000000
vt 0.000000 0.000000
vt 0.000000 0.000000
vt 0.000000 0.000000
vt 0.000000 0.000000
vt 0.000000 0.000000
vt 0.000000 0.000000
vt 0.000000 0.000000
vt 0.000000 0.000000
vt 0.000000 0.000000
vt 0.000000 0.000000
vt 0.000000 0.000000
vt 0.000000 0.000000
vt 0.000000 0.000000
vt 0.000000 0.000000
vt 0.000000 0.000000
vt 0.000000 0.000000
vt 0.000000 0.000000
vt 0.000000 0.000000
vt 0.000000 0.000000
vt 0.000000 0.000000
vn 0.0000 -0.0019 1.0000
usemtl None
s 1
f 33/33/2 34/34/2 35/35/2
f 33/33/2 36/36/2 37/37/2
f 36/36/2 38/38/2 37/37/2
f 38/38/2 39/39/2 37/37/2
f 37/37/2 40/40/2 41/41/2
f 41/41/2 42/42/2 37/37/2
f 42/42/2 34/34/2 37/37/2
f 34/34/2 43/43/2 44/44/2
f 44/44/2 45/45/2 46/46/2
f 46/46/2 47/47/2 48/48/2
f 48/48/2 49/49/2 46/46/2
f 49/49/2 35/35/2 46/46/2
f 35/35/2 50/50/2 51/51/2
f 51/51/2 52/52/2 53/53/2
f 53/53/2 54/54/2 55/55/2
f 55/55/2 56/56/2 53/53/2
f 56/56/2 57/57/2 53/53/2
f 57/57/2 58/58/2 59/59/2
f 59/59/2 60/60/2 61/61/2
f 61/61/2 62/62/2 63/63/2
f 63/63/2 64/64/2 61/61/2
f 64/64/2 33/33/2 61/61/2
f 34/34/2 44/44/2 35/35/2
f 44/44/2 46/46/2 35/35/2
f 35/35/2 51/51/2 57/57/2
f 51/51/2 53/53/2 57/57/2
f 57/57/2 59/59/2 61/61/2
f 33/33/2 37/37/2 34/34/2
f 57/57/2 61/61/2 35/35/2
f 61/61/2 33/33/2 35/35/2
o Circle_Circle.002
v -0.740452 1.995323 0.001030
v -1.276149 1.459628 -0.000000
v -0.740452 0.923932 -0.001030
v -0.844962 1.985030 0.001010
v -1.119247 1.838422 0.000728
v -0.945455 1.954546 0.000951
v -1.038070 1.905042 0.000856
v -1.185868 1.757244 0.000572
v -1.235372 1.664629 0.000394
v -1.265856 1.564136 0.000201
v -1.265856 1.355119 -0.000201
v -1.235372 1.254626 -0.000394
v -1.185868 1.162011 -0.000572
v -1.119247 1.080833 -0.000728
v -1.038070 1.014212 -0.000857
v -0.945454 0.964709 -0.000952
v -0.844962 0.934225 -0.001010
v -0.635943 0.934225 -0.001010
v -0.535450 0.964709 -0.000952
v -0.442835 1.014213 -0.000857
v -0.361657 1.080834 -0.000728
v -0.295036 1.162011 -0.000572
v -0.245533 1.254626 -0.000394
v -0.215049 1.355119 -0.000201
v -0.204756 1.459628 -0.000000
v -0.215049 1.564137 0.000201
v -0.245533 1.664630 0.000394
v -0.295037 1.757245 0.000572
v -0.361658 1.838422 0.000728
v -0.442836 1.905043 0.000856
v -0.535451 1.954546 0.000951
v -0.635944 1.985030 0.001010
vt 0.000000 0.000000
vt 0.000000 0.000000
vt 0.000000 0.000000
vt 0.000000 0.000000
vt 0.000000 0.000000
vt 0.000000 0.000000
vt 0.000000 0.000000
vt 0.000000 0.000000
vt 0.000000 0.000000
vt 0.000000 0.000000
vt 0.000000 0.000000
vt 0.000000 0.000000
vt 0.000000 0.000000
vt 0.000000 0.000000
vt 0.000000 0.000000
vt 0.000000 0.000000
vt 0.000000 0.000000
vt 0.000000 0.000000
vt 0.000000 0.000000
vt 0.000000 0.000000
vt 0.000000 0.000000
vt 0.000000 0.000000
vt 0.000000 0.000000
vt 0.000000 0.000000
vt 0.000000 0.000000
vt 0.000000 0.000000
vt 0.000000 0.000000
vt 0.000000 0.000000
vt 0.000000 0.000000
vt 0.000000 0.000000
vt 0.000000 0.000000
vt 0.000000 0.000000
vn -0.0000 -0.0019 1.0000
usemtl None.001
s 1
f 65/65/3 66/66/3 67/67/3
f 65/65/3 68/68/3 69/69/3
f 68/68/3 70/70/3 69/69/3
f 70/70/3 71/71/3 69/69/3
f 69/69/3 72/72/3 73/73/3
f 73/73/3 74/74/3 69/69/3
f 74/74/3 66/66/3 69/69/3
f 66/66/3 75/75/3 76/76/3
f 76/76/3 77/77/3 78/78/3
f 78/78/3 79/79/3 80/80/3
f 80/80/3 81/81/3 78/78/3
f 81/81/3 67/67/3 78/78/3
f 67/67/3 82/82/3 83/83/3
f 83/83/3 84/84/3 85/85/3
f 85/85/3 86/86/3 87/87/3
f 87/87/3 88/88/3 85/85/3
f 88/88/3 89/89/3 85/85/3
f 89/89/3 90/90/3 91/91/3
f 91/91/3 92/92/3 93/93/3
f 93/93/3 94/94/3 95/95/3
f 95/95/3 96/96/3 93/93/3
f 96/96/3 65/65/3 93/93/3
f 66/66/3 76/76/3 67/67/3
f 76/76/3 78/78/3 67/67/3
f 67/67/3 83/83/3 89/89/3
f 83/83/3 85/85/3 89/89/3
f 89/89/3 91/91/3 93/93/3
f 65/65/3 69/69/3 66/66/3
f 89/89/3 93/93/3 67/67/3
f 93/93/3 65/65/3 67/67/3
o Circle.001_Circle.001
v -0.002798 1.044953 -0.062320
v -1.035703 0.012049 -0.064306
v -0.002798 -1.020854 -0.066291
v -0.204307 1.025106 -0.062358
v -0.733172 0.742422 -0.062902
v -0.398073 0.966328 -0.062471
v -0.576649 0.870877 -0.062655
v -0.861627 0.585900 -0.063202
v -0.957077 0.407324 -0.063546
v -1.015855 0.213559 -0.063918
v -1.015856 -0.189460 -0.064693
v -0.957077 -0.383226 -0.065065
v -0.861627 -0.561801 -0.065409
v -0.733172 -0.718323 -0.065710
v -0.576649 -0.846778 -0.065957
v -0.398073 -0.942229 -0.066140
v -0.204307 -1.001007 -0.066253
v 0.198713 -1.001007 -0.066253
v 0.392479 -0.942229 -0.066140
v 0.571055 -0.846778 -0.065957
v 0.727577 -0.718323 -0.065710
v 0.856032 -0.561800 -0.065409
v 0.951483 -0.383225 -0.065065
v 1.010261 -0.189459 -0.064693
v 1.030108 0.012050 -0.064306
v 1.010260 0.213560 -0.063918
v 0.951482 0.407325 -0.063546
v 0.856031 0.585901 -0.063202
v 0.727576 0.742423 -0.062902
v 0.571053 0.870878 -0.062655
v 0.392477 0.966329 -0.062471
v 0.198710 1.025106 -0.062358
vt 0.000000 0.000000
vt 0.000000 0.000000
vt 0.000000 0.000000
vt 0.000000 0.000000
vt 0.000000 0.000000
vt 0.000000 0.000000
vt 0.000000 0.000000
vt 0.000000 0.000000
vt 0.000000 0.000000
vt 0.000000 0.000000
vt 0.000000 0.000000
vt 0.000000 0.000000
vt 0.000000 0.000000
vt 0.000000 0.000000
vt 0.000000 0.000000
vt 0.000000 0.000000
vt 0.000000 0.000000
vt 0.000000 0.000000
vt 0.000000 0.000000
vt 0.000000 0.000000
vt 0.000000 0.000000
vt 0.000000 0.000000
vt 0.000000 0.000000
vt 0.000000 0.000000
vt 0.000000 0.000000
vt 0.000000 0.000000
vt 0.000000 0.000000
vt 0.000000 0.000000
vt 0.000000 0.000000
vt 0.000000 0.000000
vt 0.000000 0.000000
vt 0.000000 0.000000
vn 0.0000 -0.0019 1.0000
usemtl None.003
s 1
f 97/97/4 98/98/4 99/99/4
f 97/97/4 100/100/4 101/101/4
f 100/100/4 102/102/4 101/101/4
f 102/102/4 103/103/4 101/101/4
f 101/101/4 104/104/4 105/105/4
f 105/105/4 106/106/4 101/101/4
f 106/106/4 98/98/4 101/101/4
f 98/98/4 107/107/4 108/108/4
f 108/108/4 109/109/4 110/110/4
f 110/110/4 111/111/4 112/112/4
f 112/112/4 113/113/4 110/110/4
f 113/113/4 99/99/4 110/110/4
f 99/99/4 114/114/4 115/115/4
f 115/115/4 116/116/4 117/117/4
f 117/117/4 118/118/4 119/119/4
f 119/119/4 120/120/4 117/117/4
f 120/120/4 121/121/4 117/117/4
f 121/121/4 122/122/4 123/123/4
f 123/123/4 124/124/4 125/125/4
f 125/125/4 126/126/4 127/127/4
f 127/127/4 128/128/4 125/125/4
f 128/128/4 97/97/4 125/125/4
f 98/98/4 108/108/4 99/99/4
f 108/108/4 110/110/4 99/99/4
f 99/99/4 115/115/4 121/121/4
f 115/115/4 117/117/4 121/121/4
f 121/121/4 123/123/4 125/125/4
f 97/97/4 101/101/4 98/98/4
f 121/121/4 125/125/4 99/99/4
f 125/125/4 97/97/4 99/99/4
o Circle_Circle.003
v -0.727215 1.883647 -0.092802
v -1.152792 1.458071 -0.093621
v -0.727215 1.032495 -0.094439
v -0.810241 1.875470 -0.092818
v -1.028143 1.758999 -0.093042
v -0.890076 1.851252 -0.092865
v -0.963653 1.811924 -0.092940
v -1.081069 1.694508 -0.093166
v -1.120397 1.620932 -0.093308
v -1.144614 1.541097 -0.093461
v -1.144614 1.375045 -0.093780
v -1.120397 1.295210 -0.093934
v -1.081069 1.221634 -0.094075
v -1.028143 1.157143 -0.094199
v -0.963653 1.104217 -0.094301
v -0.890076 1.064890 -0.094377
v -0.810241 1.040672 -0.094423
v -0.644189 1.040672 -0.094423
v -0.564354 1.064890 -0.094377
v -0.490777 1.104217 -0.094301
v -0.426286 1.157143 -0.094199
v -0.373360 1.221634 -0.094075
v -0.334033 1.295210 -0.093934
v -0.309815 1.375046 -0.093780
v -0.301638 1.458071 -0.093621
v -0.309816 1.541097 -0.093461
v -0.334033 1.620932 -0.093308
v -0.373361 1.694509 -0.093166
v -0.426287 1.758999 -0.093042
v -0.490778 1.811925 -0.092940
v -0.564354 1.851252 -0.092865
v -0.644190 1.875470 -0.092818
vt 0.000000 0.000000
vt 0.000000 0.000000
vt 0.000000 0.000000
vt 0.000000 0.000000
vt 0.000000 0.000000
vt 0.000000 0.000000
vt 0.000000 0.000000
vt 0.000000 0.000000
vt 0.000000 0.000000
vt 0.000000 0.000000
vt 0.000000 0.000000
vt 0.000000 0.000000
vt 0.000000 0.000000
vt 0.000000 0.000000
vt 0.000000 0.000000
vt 0.000000 0.000000
vt 0.000000 0.000000
vt 0.000000 0.000000
vt 0.000000 0.000000
vt 0.000000 0.000000
vt 0.000000 0.000000
vt 0.000000 0.000000
vt 0.000000 0.000000
vt 0.000000 0.000000
vt 0.000000 0.000000
vt 0.000000 0.000000
vt 0.000000 0.000000
vt 0.000000 0.000000
vt 0.000000 0.000000
vt 0.000000 0.000000
vt 0.000000 0.000000
vt 0.000000 0.000000
vn 0.0000 -0.0019 1.0000
usemtl None.002
s 1
f 129/129/5 130/130/5 131/131/5
f 129/129/5 132/132/5 133/133/5
f 132/132/5 134/134/5 133/133/5
f 134/134/5 135/135/5 133/133/5
f 133/133/5 136/136/5 137/137/5
f 137/137/5 138/138/5 133/133/5
f 138/138/5 130/130/5 133/133/5
f 130/130/5 139/139/5 140/140/5
f 140/140/5 141/141/5 142/142/5
f 142/142/5 143/143/5 144/144/5
f 144/144/5 145/145/5 142/142/5
f 145/145/5 131/131/5 142/142/5
f 131/131/5 146/146/5 147/147/5
f 147/147/5 148/148/5 149/149/5
f 149/149/5 150/150/5 151/151/5
f 151/151/5 152/152/5 149/149/5
f 152/152/5 153/153/5 149/149/5
f 153/153/5 154/154/5 155/155/5
f 155/155/5 156/156/5 157/157/5
f 157/157/5 158/158/5 159/159/5
f 159/159/5 160/160/5 157/157/5
f 160/160/5 129/129/5 157/157/5
f 130/130/5 140/140/5 131/131/5
f 140/140/5 142/142/5 131/131/5
f 131/131/5 147/147/5 153/153/5
f 147/147/5 149/149/5 153/153/5
f 153/153/5 155/155/5 157/157/5
f 129/129/5 133/133/5 130/130/5
f 153/153/5 157/157/5 131/131/5
f 157/157/5 129/129/5 131/131/5
o Circle_Circle.004
v 0.751290 1.886153 -0.092802
v 0.325713 1.460577 -0.093621
v 0.751290 1.035001 -0.094439
v 0.668264 1.877976 -0.092818
v 0.450362 1.761505 -0.093042
v 0.588428 1.853758 -0.092865
v 0.514852 1.814430 -0.092940
v 0.397436 1.697014 -0.093166
v 0.358108 1.623438 -0.093308
v 0.333890 1.543603 -0.093461
v 0.333890 1.377551 -0.093780
v 0.358108 1.297716 -0.093934
v 0.397436 1.224140 -0.094075
v 0.450362 1.159649 -0.094199
v 0.514852 1.106723 -0.094301
v 0.588429 1.067396 -0.094377
v 0.668264 1.043178 -0.094423
v 0.834316 1.043178 -0.094423
v 0.914151 1.067396 -0.094377
v 0.987728 1.106723 -0.094301
v 1.052218 1.159649 -0.094199
v 1.105144 1.224140 -0.094075
v 1.144472 1.297716 -0.093934
v 1.168689 1.377552 -0.093780
v 1.176866 1.460577 -0.093621
v 1.168689 1.543603 -0.093461
v 1.144471 1.623438 -0.093308
v 1.105143 1.697015 -0.093166
v 1.052217 1.761505 -0.093042
v 0.987727 1.814431 -0.092940
v 0.914150 1.853758 -0.092865
v 0.834315 1.877976 -0.092818
vt 0.000000 0.000000
vt 0.000000 0.000000
vt 0.000000 0.000000
vt 0.000000 0.000000
vt 0.000000 0.000000
vt 0.000000 0.000000
vt 0.000000 0.000000
vt 0.000000 0.000000
vt 0.000000 0.000000
vt 0.000000 0.000000
vt 0.000000 0.000000
vt 0.000000 0.000000
vt 0.000000 0.000000
vt 0.000000 0.000000
vt 0.000000 0.000000
vt 0.000000 0.000000
vt 0.000000 0.000000
vt 0.000000 0.000000
vt 0.000000 0.000000
vt 0.000000 0.000000
vt 0.000000 0.000000
vt 0.000000 0.000000
vt 0.000000 0.000000
vt 0.000000 0.000000
vt 0.000000 0.000000
vt 0.000000 0.000000
vt 0.000000 0.000000
vt 0.000000 0.000000
vt 0.000000 0.000000
vt 0.000000 0.000000
vt 0.000000 0.000000
vt 0.000000 0.000000
vn 0.0000 -0.0019 1.0000
usemtl None.003
s 1
f 161/161/6 162/162/6 163/163/6
f 161/161/6 164/164/6 165/165/6
f 164/164/6 166/166/6 165/165/6
f 166/166/6 167/167/6 165/165/6
f 165/165/6 168/168/6 169/169/6
f 169/169/6 170/170/6 165/165/6
f 170/170/6 162/162/6 165/165/6
f 162/162/6 171/171/6 172/172/6
f 172/172/6 173/173/6 174/174/6
f 174/174/6 175/175/6 176/176/6
f 176/176/6 177/177/6 174/174/6
f 177/177/6 163/163/6 174/174/6
f 163/163/6 178/178/6 179/179/6
f 179/179/6 180/180/6 181/181/6
f 181/181/6 182/182/6 183/183/6
f 183/183/6 184/184/6 181/181/6
f 184/184/6 185/185/6 181/181/6
f 185/185/6 186/186/6 187/187/6
f 187/187/6 188/188/6 189/189/6
f 189/189/6 190/190/6 191/191/6
f 191/191/6 192/192/6 189/189/6
f 192/192/6 161/161/6 189/189/6
f 162/162/6 172/172/6 163/163/6
f 172/172/6 174/174/6 163/163/6
f 163/163/6 179/179/6 185/185/6
f 179/179/6 181/181/6 185/185/6
f 185/185/6 187/187/6 189/189/6
f 161/161/6 165/165/6 162/162/6
f 185/185/6 189/189/6 163/163/6
f 189/189/6 161/161/6 163/163/6
