# Blender v2.91.2 OBJ File: 'Circle.blend'
# www.blender.org
mtllib enemy1.mtl
o Circle_Circle.001
v 0.000000 1.170434 0.002250
v -0.228341 1.147945 0.002207
v -0.447907 1.081340 0.002079
v -0.650260 0.973180 0.001871
v -0.827623 0.827622 0.001591
v -0.973182 0.650258 0.001250
v -1.081342 0.447906 0.000861
v -1.147947 0.228340 0.000439
v -1.170436 0.000000 0.000000
v -1.147947 -0.228340 -0.000439
v -1.081342 -0.447906 -0.000861
v -0.973182 -0.650258 -0.001250
v -0.827623 -0.827622 -0.001591
v -0.650260 -0.973181 -0.001871
v -0.447906 -1.081340 -0.002079
v -0.228341 -1.147945 -0.002207
v 0.000000 -1.170434 -0.002250
v 0.228341 -1.147945 -0.002207
v 0.447907 -1.081340 -0.002079
v 0.650260 -0.973180 -0.001871
v 0.827624 -0.827621 -0.001591
v 0.973183 -0.650258 -0.001250
v 1.081343 -0.447905 -0.000861
v 1.147947 -0.228339 -0.000439
v 1.170436 0.000001 0.000000
v 1.147946 0.228342 0.000439
v 1.081342 0.447907 0.000861
v 0.973181 0.650260 0.001250
v 0.827622 0.827623 0.001591
v 0.650258 0.973181 0.001871
v 0.447905 1.081341 0.002079
v 0.228339 1.147945 0.002207
vt 0.000000 0.000000
vt 0.000000 0.000000
vt 0.000000 0.000000
vt 0.000000 0.000000
vt 0.000000 0.000000
vt 0.000000 0.000000
vt 0.000000 0.000000
vt 0.000000 0.000000
vt 0.000000 0.000000
vt 0.000000 0.000000
vt 0.000000 0.000000
vt 0.000000 0.000000
vt 0.000000 0.000000
vt 0.000000 0.000000
vt 0.000000 0.000000
vt 0.000000 0.000000
vt 0.000000 0.000000
vt 0.000000 0.000000
vt 0.000000 0.000000
vt 0.000000 0.000000
vt 0.000000 0.000000
vt 0.000000 0.000000
vt 0.000000 0.000000
vt 0.000000 0.000000
vt 0.000000 0.000000
vt 0.000000 0.000000
vt 0.000000 0.000000
vt 0.000000 0.000000
vt 0.000000 0.000000
vt 0.000000 0.000000
vt 0.000000 0.000000
vt 0.000000 0.000000
vn 0.0000 -0.0019 1.0000
usemtl None
s off
f 1/1/1 9/2/1 17/3/1
f 1/1/1 2/4/1 5/5/1
f 2/4/1 3/6/1 5/5/1
f 3/6/1 4/7/1 5/5/1
f 5/5/1 6/8/1 7/9/1
f 7/9/1 8/10/1 5/5/1
f 8/10/1 9/2/1 5/5/1
f 9/2/1 10/11/1 11/12/1
f 11/12/1 12/13/1 13/14/1
f 13/14/1 14/15/1 15/16/1
f 15/16/1 16/17/1 13/14/1
f 16/17/1 17/3/1 13/14/1
f 17/3/1 18/18/1 19/19/1
f 19/19/1 20/20/1 21/21/1
f 21/21/1 22/22/1 23/23/1
f 23/23/1 24/24/1 21/21/1
f 24/24/1 25/25/1 21/21/1
f 25/25/1 26/26/1 27/27/1
f 27/27/1 28/28/1 29/29/1
f 29/29/1 30/30/1 31/31/1
f 31/31/1 32/32/1 29/29/1
f 32/32/1 1/1/1 29/29/1
f 9/2/1 11/12/1 17/3/1
f 11/12/1 13/14/1 17/3/1
f 17/3/1 19/19/1 25/25/1
f 19/19/1 21/21/1 25/25/1
f 25/25/1 27/27/1 29/29/1
f 1/1/1 5/5/1 9/2/1
f 25/25/1 29/29/1 17/3/1
f 29/29/1 1/1/1 17/3/1
o Circle.001_Circle.002
v 0.000000 1.303862 0.039399
v -0.253651 1.278879 0.039351
v -0.497555 1.204892 0.039209
v -0.722338 1.084743 0.038978
v -0.919362 0.923050 0.038667
v -1.081055 0.726027 0.038289
v -1.201204 0.501244 0.037856
v -1.275191 0.257341 0.037388
v -1.300174 0.003690 0.036900
v -1.275192 -0.249961 0.036413
v -1.201204 -0.493864 0.035944
v -1.081055 -0.718647 0.035512
v -0.919362 -0.915670 0.035133
v -0.722338 -1.077363 0.034822
v -0.497555 -1.197512 0.034591
v -0.253651 -1.271499 0.034449
v 0.000000 -1.296482 0.034401
v 0.253652 -1.271499 0.034449
v 0.497556 -1.197512 0.034591
v 0.722339 -1.077363 0.034822
v 0.919362 -0.915670 0.035133
v 1.081056 -0.718646 0.035512
v 1.201205 -0.493863 0.035944
v 1.275192 -0.249960 0.036413
v 1.300174 0.003691 0.036900
v 1.275191 0.257342 0.037388
v 1.201204 0.501245 0.037856
v 1.081054 0.726028 0.038289
v 0.919361 0.923051 0.038667
v 0.722337 1.084744 0.038978
v 0.497553 1.204893 0.039209
v 0.253649 1.278880 0.039351
vt 0.000000 0.000000
vt 0.000000 0.000000
vt 0.000000 0.000000
vt 0.000000 0.000000
vt 0.000000 0.000000
vt 0.000000 0.000000
vt 0.000000 0.000000
vt 0.000000 0.000000
vt 0.000000 0.000000
vt 0.000000 0.000000
vt 0.000000 0.000000
vt 0.000000 0.000000
vt 0.000000 0.000000
vt 0.000000 0.000000
vt 0.000000 0.000000
vt 0.000000 0.000000
vt 0.000000 0.000000
vt 0.000000 0.000000
vt 0.000000 0.000000
vt 0.000000 0.000000
vt 0.000000 0.000000
vt 0.000000 0.000000
vt 0.000000 0.000000
vt 0.000000 0.000000
vt 0.000000 0.000000
vt 0.000000 0.000000
vt 0.000000 0.000000
vt 0.000000 0.000000
vt 0.000000 0.000000
vt 0.000000 0.000000
vt 0.000000 0.000000
vt 0.000000 0.000000
vn 0.0000 -0.0019 1.0000
usemtl None
s off
f 33/33/2 41/34/2 49/35/2
f 33/33/2 34/36/2 37/37/2
f 34/36/2 35/38/2 37/37/2
f 35/38/2 36/39/2 37/37/2
f 37/37/2 38/40/2 39/41/2
f 39/41/2 40/42/2 37/37/2
f 40/42/2 41/34/2 37/37/2
f 41/34/2 42/43/2 43/44/2
f 43/44/2 44/45/2 45/46/2
f 45/46/2 46/47/2 47/48/2
f 47/48/2 48/49/2 45/46/2
f 48/49/2 49/35/2 45/46/2
f 49/35/2 50/50/2 51/51/2
f 51/51/2 52/52/2 53/53/2
f 53/53/2 54/54/2 55/55/2
f 55/55/2 56/56/2 53/53/2
f 56/56/2 57/57/2 53/53/2
f 57/57/2 58/58/2 59/59/2
f 59/59/2 60/60/2 61/61/2
f 61/61/2 62/62/2 63/63/2
f 63/63/2 64/64/2 61/61/2
f 64/64/2 33/33/2 61/61/2
f 41/34/2 43/44/2 49/35/2
f 43/44/2 45/46/2 49/35/2
f 49/35/2 51/51/2 57/57/2
f 51/51/2 53/53/2 57/57/2
f 57/57/2 59/59/2 61/61/2
f 33/33/2 37/37/2 41/34/2
f 57/57/2 61/61/2 49/35/2
f 61/61/2 33/33/2 49/35/2
