# Blender v2.91.2 OBJ File: ''
# www.blender.org
mtllib enemy2.mtl
o Circle_Circle.001
v 0.761730 2.003834 0.001030
v 0.226033 1.468138 -0.000000
v 0.761730 0.932443 -0.001030
v 0.657220 1.993541 0.001010
v 0.382935 1.846933 0.000728
v 0.556727 1.963057 0.000951
v 0.464112 1.913553 0.000856
v 0.316314 1.765755 0.000572
v 0.266811 1.673141 0.000394
v 0.236326 1.572647 0.000201
v 0.236326 1.363630 -0.000201
v 0.266811 1.263136 -0.000394
v 0.316314 1.170522 -0.000572
v 0.382935 1.089344 -0.000728
v 0.464112 1.022723 -0.000857
v 0.556728 0.973220 -0.000952
v 0.657220 0.942736 -0.001010
v 0.866239 0.942736 -0.001010
v 0.966732 0.973220 -0.000952
v 1.059347 1.022724 -0.000857
v 1.140525 1.089345 -0.000728
v 1.207146 1.170522 -0.000572
v 1.256649 1.263137 -0.000394
v 1.287133 1.363630 -0.000201
v 1.297426 1.468139 -0.000000
v 1.287133 1.572648 0.000201
v 1.256649 1.673141 0.000394
v 1.207145 1.765756 0.000572
v 1.140524 1.846933 0.000728
v 1.059346 1.913553 0.000856
v 0.966731 1.963057 0.000951
v 0.866238 1.993541 0.001010
vt 0.000000 0.000000
vt 0.000000 0.000000
vt 0.000000 0.000000
vt 0.000000 0.000000
vt 0.000000 0.000000
vt 0.000000 0.000000
vt 0.000000 0.000000
vt 0.000000 0.000000
vt 0.000000 0.000000
vt 0.000000 0.000000
vt 0.000000 0.000000
vt 0.000000 0.000000
vt 0.000000 0.000000
vt 0.000000 0.000000
vt 0.000000 0.000000
vt 0.000000 0.000000
vt 0.000000 0.000000
vt 0.000000 0.000000
vt 0.000000 0.000000
vt 0.000000 0.000000
vt 0.000000 0.000000
vt 0.000000 0.000000
vt 0.000000 0.000000
vt 0.000000 0.000000
vt 0.000000 0.000000
vt 0.000000 0.000000
vt 0.000000 0.000000
vt 0.000000 0.000000
vt 0.000000 0.000000
vt 0.000000 0.000000
vt 0.000000 0.000000
vt 0.000000 0.000000
vn -0.0000 -0.0019 1.0000
usemtl None
s 1
f 1/1/1 2/2/1 3/3/1
f 1/1/1 4/4/1 5/5/1
f 4/4/1 6/6/1 5/5/1
f 6/6/1 7/7/1 5/5/1
f 5/5/1 8/8/1 9/9/1
f 9/9/1 10/10/1 5/5/1
f 10/10/1 2/2/1 5/5/1
f 2/2/1 11/11/1 12/12/1
f 12/12/1 13/13/1 14/14/1
f 14/14/1 15/15/1 16/16/1
f 16/16/1 17/17/1 14/14/1
f 17/17/1 3/3/1 14/14/1
f 3/3/1 18/18/1 19/19/1
f 19/19/1 20/20/1 21/21/1
f 21/21/1 22/22/1 23/23/1
f 23/23/1 24/24/1 21/21/1
f 24/24/1 25/25/1 21/21/1
f 25/25/1 26/26/1 27/27/1
f 27/27/1 28/28/1 29/29/1
f 29/29/1 30/30/1 31/31/1
f 31/31/1 32/32/1 29/29/1
f 32/32/1 1/1/1 29/29/1
f 2/2/1 12/12/1 3/3/1
f 12/12/1 14/14/1 3/3/1
f 3/3/1 19/19/1 25/25/1
f 19/19/1 21/21/1 25/25/1
f 25/25/1 27/27/1 29/29/1
f 1/1/1 5/5/1 2/2/1
f 25/25/1 29/29/1 3/3/1
f 29/29/1 1/1/1 3/3/1
o Circle.001_Circle.002
v 0.000000 1.303862 0.039399
v -1.300174 0.003690 0.036900
v 0.000000 -1.296482 0.034401
v -0.253651 1.278879 0.039351
v -0.919362 0.923050 0.038667
v -0.497555 1.204892 0.039209
v -0.722338 1.084743 0.038978
v -1.081055 0.726027 0.038289
v -1.201204 0.501244 0.037856
v -1.275191 0.257341 0.037388
v -1.275192 -0.249961 0.036413
v -1.201204 -0.493864 0.035944
v -1.081055 -0.718647 0.035512
v -0.919362 -0.915670 0.035133
v -0.722338 -1.077363 0.034822
v -0.497555 -1.197512 0.034591
v -0.253651 -1.271499 0.034449
v 0.253652 -1.271499 0.034449
v 0.497556 -1.197512 0.034591
v 0.722339 -1.077363 0.034822
v 0.919362 -0.915670 0.035133
v 1.081056 -0.718646 0.035512
v 1.201205 -0.493863 0.035944
v 1.275192 -0.249960 0.036413
v 1.300174 0.003691 0.036900
v 1.275191 0.257342 0.037388
v 1.201204 0.501245 0.037856
v 1.081054 0.726028 0.038289
v 0.919361 0.923051 0.038667
v 0.722337 1.084744 0.038978
v 0.497553 1.204893 0.039209
v 0.253649 1.278880 0.039351
vt 0.000000 0.000000
vt 0.000000 0.000000
vt 0.000000 0.000000
vt 0.000000 0.000000
vt 0.000000 0.000000
vt 0.000000 0.000000
vt 0.000000 0.000000
vt 0.000000 0.000000
vt 0.000000 0.000000
vt 0.000000 0.000000
vt 0.000000 0.000000
vt 0.000000 0.000000
vt 0.000000 0.000000
vt 0.000000 0.000000
vt 0.000000 0.000000
vt 0.000000 0.000000
vt 0.000000 0.000000
vt 0.000000 0.000000
vt 0.000000 0.000000
vt 0.000000 0.000000
vt 0.000000 0.000000
vt 0.000000 0.000000
vt 0.000000 0.000000
vt 0.000000 0.000000
vt 0.000000 0.000000
vt 0.000000 0.000000
vt 0.000000 0.000000
vt 0.000000 0.000000
vt 0.000000 0.000000
vt 0.000000 0.000000
vt 0.000000 0.000000
vt 0.000000 0.000000
vn 0.0000 -0.0019 1.0000
usemtl None
s 1
f 33/33/2 34/34/2 35/35/2
f 33/33/2 36/36/2 37/37/2
f 36/36/2 38/38/2 37/37/2
f 38/38/2 39/39/2 37/37/2
f 37/37/2 40/40/2 41/41/2
f 41/41/2 42/42/2 37/37/2
f 42/42/2 34/34/2 37/37/2
f 34/34/2 43/43/2 44/44/2
f 44/44/2 45/45/2 46/46/2
f 46/46/2 47/47/2 48/48/2
f 48/48/2 49/49/2 46/46/2
f 49/49/2 35/35/2 46/46/2
f 35/35/2 50/50/2 51/51/2
f 51/51/2 52/52/2 53/53/2
f 53/53/2 54/54/2 55/55/2
f 55/55/2 56/56/2 53/53/2
f 56/56/2 57/57/2 53/53/2
f 57/57/2 58/58/2 59/59/2
f 59/59/2 60/60/2 61/61/2
f 61/61/2 62/62/2 63/63/2
f 63/63/2 64/64/2 61/61/2
f 64/64/2 33/33/2 61/61/2
f 34/34/2 44/44/2 35/35/2
f 44/44/2 46/46/2 35/35/2
f 35/35/2 51/51/2 57/57/2
f 51/51/2 53/53/2 57/57/2
f 57/57/2 59/59/2 61/61/2
f 33/33/2 37/37/2 34/34/2
f 57/57/2 61/61/2 35/35/2
f 61/61/2 33/33/2 35/35/2
o Circle_Circle.002
v -0.740452 1.995323 0.001030
v -1.276149 1.459628 -0.000000
v -0.740452 0.923932 -0.001030
v -0.844962 1.985030 0.001010
v -1.119247 1.838422 0.000728
v -0.945455 1.954546 0.000951
v -1.038070 1.905042 0.000856
v -1.185868 1.757244 0.000572
v -1.235372 1.664629 0.000394
v -1.265856 1.564136 0.000201
v -1.265856 1.355119 -0.000201
v -1.235372 1.254626 -0.000394
v -1.185868 1.162011 -0.000572
v -1.119247 1.080833 -0.000728
v -1.038070 1.014212 -0.000857
v -0.945454 0.964709 -0.000952
v -0.844962 0.934225 -0.001010
v -0.635943 0.934225 -0.001010
v -0.535450 0.964709 -0.000952
v -0.442835 1.014213 -0.000857
v -0.361657 1.080834 -0.000728
v -0.295036 1.162011 -0.000572
v -0.245533 1.254626 -0.000394
v -0.215049 1.355119 -0.000201
v -0.204756 1.459628 -0.000000
v -0.215049 1.564137 0.000201
v -0.245533 1.664630 0.000394
v -0.295037 1.757245 0.000572
v -0.361658 1.838422 0.000728
v -0.442836 1.905043 0.000856
v -0.535451 1.954546 0.000951
v -0.635944 1.985030 0.001010
vt 0.000000 0.000000
vt 0.000000 0.000000
vt 0.000000 0.000000
vt 0.000000 0.000000
vt 0.000000 0.000000
vt 0.000000 0.000000
vt 0.000000 0.000000
vt 0.000000 0.000000
vt 0.000000 0.000000
vt 0.000000 0.000000
vt 0.000000 0.000000
vt 0.000000 0.000000
vt 0.000000 0.000000
vt 0.000000 0.000000
vt 0.000000 0.000000
vt 0.000000 0.000000
vt 0.000000 0.000000
vt 0.000000 0.000000
vt 0.000000 0.000000
vt 0.000000 0.000000
vt 0.000000 0.000000
vt 0.000000 0.000000
vt 0.000000 0.000000
vt 0.000000 0.000000
vt 0.000000 0.000000
vt 0.000000 0.000000
vt 0.000000 0.000000
vt 0.000000 0.000000
vt 0.000000 0.000000
vt 0.000000 0.000000
vt 0.000000 0.000000
vt 0.000000 0.000000
vn -0.0000 -0.0019 1.0000
usemtl None.001
s 1
f 65/65/3 66/66/3 67/67/3
f 65/65/3 68/68/3 69/69/3
f 68/68/3 70/70/3 69/69/3
f 70/70/3 71/71/3 69/69/3
f 69/69/3 72/72/3 73/73/3
f 73/73/3 74/74/3 69/69/3
f 74/74/3 66/66/3 69/69/3
f 66/66/3 75/75/3 76/76/3
f 76/76/3 77/77/3 78/78/3
f 78/78/3 79/79/3 80/80/3
f 80/80/3 81/81/3 78/78/3
f 81/81/3 67/67/3 78/78/3
f 67/67/3 82/82/3 83/83/3
f 83/83/3 84/84/3 85/85/3
f 85/85/3 86/86/3 87/87/3
f 87/87/3 88/88/3 85/85/3
f 88/88/3 89/89/3 85/85/3
f 89/89/3 90/90/3 91/91/3
f 91/91/3 92/92/3 93/93/3
f 93/93/3 94/94/3 95/95/3
f 95/95/3 96/96/3 93/93/3
f 96/96/3 65/65/3 93/93/3
f 66/66/3 76/76/3 67/67/3
f 76/76/3 78/78/3 67/67/3
f 67/67/3 83/83/3 89/89/3
f 83/83/3 85/85/3 89/89/3
f 89/89/3 91/91/3 93/93/3
f 65/65/3 69/69/3 66/66/3
f 89/89/3 93/93/3 67/67/3
f 93/93/3 65/65/3 67/67/3
