# Blender v2.91.2 OBJ File: ''
# www.blender.org
mtllib quad_wireframe.mtl
o quad
v 0.626457 -0.626457 -0.000000
v -0.626457 -0.626457 -0.000000
v -0.626457 0.626457 0.000000
v 0.626457 0.626457 0.000000
v 1.000000 -1.000000 -0.000000
v -1.000000 -1.000000 -0.000000
v -1.000000 1.000000 0.000000
v 1.000000 1.000000 0.000000
vn -0.0000 0.0000 -1.0000
usemtl Default_OBJ
s off
f 2//1 6//1 3//1
f 4//1 8//1 1//1
f 2//1 1//1 5//1
f 6//1 7//1 3//1
f 2//1 5//1 6//1
f 4//1 3//1 7//1
f 8//1 5//1 1//1
f 4//1 7//1 8//1
